<svg xmlns="http://www.w3.org/2000/svg" width="37.961" height="34.145" viewBox="0 0 37.961 34.145">
  <path id="caneta" d="M36.477,28.1a9.022,9.022,0,0,0-2.512-3.741L9.5,2.376a1,1,0,0,0-1.3,0L8.064,2.5,6.131.739A2.927,2.927,0,0,0,4.164,0,2.927,2.927,0,0,0,2.2.739L1.064,1.772a2.315,2.315,0,0,0,.013,3.5L3.021,7.019l-.715.636a3.85,3.85,0,0,0-.019,5.869l7.37,6.624a1,1,0,0,0,1.3,0,.77.77,0,0,0,0-1.17l-7.37-6.624A2.306,2.306,0,0,1,3.528,8.9l11.024,9.909,2.013,1.81,1.3,1.17,9.48,8.52a10.437,10.437,0,0,0,4.162,2.258l5.528,1.541a1,1,0,0,0,.924-.205.771.771,0,0,0,.228-.831ZM2.375,2.935,3.509,1.9a1,1,0,0,1,1.311,0L6.761,3.669,4.33,5.855,2.379,4.1a.771.771,0,0,1,0-1.166Zm2.466,4.8L8.852,4.132l9.773,8.784-4.011,3.606Zm11.075,9.954,4.011-3.606,1.954,1.756-4.011,3.606Zm3.256,2.926,4.011-3.606,9.479,8.52q.144.129.279.265l-4,3.591c-.1-.082-.2-.166-.295-.251ZM32.056,30.986a8.8,8.8,0,0,1-1.6-.617l3.57-3.209a7.067,7.067,0,0,1,.687,1.434l1.2,3.467Zm0,0" transform="translate(-0.271 0)" fill="#fff"/>
</svg>
