<svg xmlns="http://www.w3.org/2000/svg" xmlns:xlink="http://www.w3.org/1999/xlink" width="68" height="68" viewBox="0 0 68 68">
  <defs>
    <clipPath id="clip-path">
      <rect id="Ret칙ngulo_32" data-name="Ret칙ngulo 32" width="68" height="68" transform="translate(752 3723)" fill="#fff"/>
    </clipPath>
  </defs>
  <g id="Grupo_de_m치scara_1" data-name="Grupo de m치scara 1" transform="translate(-752 -3723)" clip-path="url(#clip-path)">
    <g id="camera" transform="translate(754.05 3723)">
      <path id="Caminho_16" data-name="Caminho 16" d="M74.356,18.729a7.686,7.686,0,0,0-7.426-7.922h-48.7a7.686,7.686,0,0,0-7.426,7.922V70.677A7.686,7.686,0,0,0,18.234,78.6h48.7a7.686,7.686,0,0,0,7.426-7.922ZM66.917,76.112H18.247a5.3,5.3,0,0,1-5.107-5.448V31.643H28.412a21.234,21.234,0,0,0-4.268,12.8c0,11.168,8.517,20.261,18.986,20.261s18.986-9.1,18.986-20.265a21.227,21.227,0,0,0-4.268-12.791H72.024V70.664a5.3,5.3,0,0,1-5.107,5.448ZM43.13,26.687c9.2,0,16.653,7.954,16.653,17.765S52.327,62.218,43.13,62.218,26.476,54.265,26.476,44.453,33.936,26.7,43.13,26.687ZM18.247,13.3H66.917a5.3,5.3,0,0,1,5.107,5.448V29.155H55.591a18.065,18.065,0,0,0-24.923,0H13.139V18.743A5.3,5.3,0,0,1,18.247,13.3Z" transform="translate(-10.807 -10.807)" fill="#fff"/>
      <path id="Caminho_17" data-name="Caminho 17" d="M102.1,30.509a5.175,5.175,0,0,0,5-5.334,5.011,5.011,0,1,0-10,0,5.181,5.181,0,0,0,5,5.334Zm0-8.18a2.852,2.852,0,1,1-2.668,2.846,2.762,2.762,0,0,1,2.668-2.846Z" transform="translate(-52.875 -14.902)" fill="#fff"/>
      <path id="Caminho_18" data-name="Caminho 18" d="M61.491,74.722c7.191,0,13.02-6.218,13.02-13.889s-5.829-13.889-13.02-13.889-13.02,6.218-13.02,13.889S54.3,74.714,61.491,74.722Zm0-25.29c5.9,0,10.688,5.1,10.688,11.4s-4.785,11.4-10.688,11.4S50.8,67.13,50.8,60.834,55.591,49.44,61.491,49.432Z" transform="translate(-29.169 -27.188)" fill="#fff"/>
    </g>
  </g>
</svg>
