<svg xmlns="http://www.w3.org/2000/svg" xmlns:xlink="http://www.w3.org/1999/xlink" width="73" height="72" viewBox="0 0 73 72">
  <defs>
    <clipPath id="clip-path">
      <rect id="Ret칙ngulo_34" data-name="Ret칙ngulo 34" width="73" height="72" transform="translate(159 20)" fill="#fff"/>
    </clipPath>
  </defs>
  <g id="Grupo_de_m치scara_3" data-name="Grupo de m치scara 3" transform="translate(-159 -20)" clip-path="url(#clip-path)">
    <g id="logo" transform="translate(157.711 93.771)">
      <path id="Caminho_19" data-name="Caminho 19" d="M31.88-73.633c-10.2.871-16.84,4.088-20.589,9.962A26.227,26.227,0,0,0,7.689-52.1a100.142,100.142,0,0,0,.059,12.28c.546,5.166,1.8,9.136,3.9,12.294a37.158,37.158,0,0,0,3.129,3.542c2.612,2.686,3.158,3.483,3.513,5.21.1.517.162,3.321.162,8.088,0,7.926,0,7.955.812,8.59l.413.325H31.511c11.763,0,11.837,0,12.235-.31.649-.5.753-.856.827-2.789A5.226,5.226,0,0,1,45-7.38a4.6,4.6,0,0,1,2.14-2.1c.723-.325.959-.339,5.328-.413l4.575-.074.93-.428c1.992-.915,2.819-2.612,3.262-6.656.089-.812.266-2.834.4-4.5s.3-3.66.4-4.428l.177-1.4,2.14-.074c2.376-.089,2.76-.207,3.38-1.122.517-.738.458-1.432-.561-6.8-2.45-12.944-4-19.939-5.284-23.939a10.974,10.974,0,0,0-1.727-3.69c-3.793-5.7-10.39-9.549-18.08-10.567A77.486,77.486,0,0,0,31.88-73.633Zm8.177,12.8a4.486,4.486,0,0,1,2.789,3.793c.015.531.089.8.192.753,3.513-1.314,6.2-.753,7.38,1.55a5.365,5.365,0,0,1-.03,4.442c-.207.384-.192.413.192.487A4.565,4.565,0,0,1,53.856-47.6a3.474,3.474,0,0,1,.369,2.14,5.724,5.724,0,0,1-.413,2.435A6.772,6.772,0,0,1,52.2-40.41L51.775-40l.177,1.018a6.775,6.775,0,0,1-.339,3.941,5.014,5.014,0,0,1-5.948,2.3L44.9-33l-.162.767a4.517,4.517,0,0,1-3.188,3.468,6.193,6.193,0,0,1-6.2-3.158l-.339-.708-.517.856a7.9,7.9,0,0,1-2.76,2.686,4.031,4.031,0,0,1-1.343.31A4.86,4.86,0,0,1,27.3-30.359a6.482,6.482,0,0,1-1.328-2.465c0-.3.059-.3-.93.044a9.056,9.056,0,0,1-3.734.458,4.286,4.286,0,0,1-3.749-4.295v-.974l-.605-.1c-2.863-.458-4.4-4.147-2.952-7.084a4.031,4.031,0,0,1,1.564-1.815c.177-.1.133-.28-.221-.974a5.366,5.366,0,0,1,.959-6.523A4.761,4.761,0,0,1,19.334-55.6a4.006,4.006,0,0,1,2.258.472c.221.089.251.015.251-.62a3.711,3.711,0,0,1,1.225-2.6,7.57,7.57,0,0,1,6.346-1.151,3.469,3.469,0,0,1,2.332,1.55l.325.576.339-.649a7.959,7.959,0,0,1,2.214-2.509A5.85,5.85,0,0,1,40.056-60.837Z" fill="#fff"/>
      <path id="Caminho_20" data-name="Caminho 20" d="M32.588-54a8.908,8.908,0,0,0-5.594,2.775,9.151,9.151,0,0,0-2.745,7.1,9.46,9.46,0,0,0,8.959,8.959,9.088,9.088,0,0,0,7.084-2.745A8.8,8.8,0,0,0,43.111-44.5a8.383,8.383,0,0,0-1-4.339A9.3,9.3,0,0,0,32.588-54ZM34.3-51.184a1.4,1.4,0,0,1,.236.723c0,.354.059.4.738.472a3.744,3.744,0,0,1,1.033.251.987.987,0,0,1,.266,1.314c-.207.384-.221.384-1.712.325-1.756-.059-2.243.133-2.243.856,0,.561.28.767,1.874,1.461,1.623.708,2.14,1.048,2.524,1.7A3.139,3.139,0,0,1,34.8-39.5c-.369.089-.413.162-.413.753,0,.546-.059.694-.384.915-.354.221-.428.221-.782.03-.3-.177-.4-.339-.428-.827-.044-.664,0-.635-1.446-.856-.8-.118-1.24-.531-1.24-1.151,0-.767.28-1.048.974-.93.31.044,1.122.133,1.786.177,1.166.089,1.21.089,1.594-.3.31-.31.369-.487.3-.8-.148-.605-.266-.694-1.874-1.373A9.459,9.459,0,0,1,30.905-44.9a2.809,2.809,0,0,1,1.136-4.8c.635-.236.694-.3.767-.812a2.2,2.2,0,0,1,.251-.782A.85.85,0,0,1,34.3-51.184Z" fill="#fff"/>
    </g>
  </g>
</svg>
